<?xml version="1.0" standalone="no"?>
<!DOCTYPE svg PUBLIC "-//W3C//DTD SVG 20010904//EN"
 "http://www.w3.org/TR/2001/REC-SVG-20010904/DTD/svg10.dtd">
<svg version="1.0" xmlns="http://www.w3.org/2000/svg"
 width="148.000000pt" height="148.000000pt" viewBox="0 0 148.000000 148.000000"
 preserveAspectRatio="xMidYMid meet">

<g transform="translate(0.000000,148.000000) scale(0.100000,-0.100000)"
fill="#000000" stroke="none">
<path d="M602 1450 c-129 -24 -272 -99 -375 -198 -249 -240 -296 -616 -116
-919 75 -125 239 -260 368 -300 51 -17 54 -17 67 2 9 12 14 44 14 85 l0 67
-75 0 c-103 1 -140 21 -182 99 -17 32 -48 73 -67 90 -38 33 -45 49 -23 57 30
10 76 -17 137 -83 63 -67 68 -70 112 -70 67 0 95 13 103 49 3 16 13 35 21 42
24 19 16 26 -38 33 -65 9 -147 47 -188 89 -18 18 -44 57 -59 87 -23 49 -26 67
-26 165 0 104 2 113 30 160 27 45 30 57 26 117 -1 37 2 83 9 103 12 35 14 37
47 32 19 -4 66 -22 104 -40 63 -32 73 -34 111 -25 55 13 221 13 276 0 39 -9
48 -7 110 24 37 19 83 37 103 40 35 6 37 5 49 -31 7 -20 10 -66 9 -103 -4 -60
-1 -72 26 -117 28 -47 30 -56 30 -160 0 -135 -21 -192 -97 -260 -50 -45 -147
-85 -204 -85 l-24 0 20 -37 c17 -32 20 -57 20 -165 0 -70 5 -139 10 -154 9
-23 14 -26 43 -20 17 4 59 19 92 35 140 66 264 190 336 336 58 120 73 189 73
335 -1 113 -4 134 -31 215 -44 128 -94 208 -187 300 -96 94 -163 136 -282 177
-73 25 -106 31 -203 34 -64 1 -140 -1 -169 -6z"/>
</g>
</svg>
