<?xml version="1.0" standalone="no"?>
<!DOCTYPE svg PUBLIC "-//W3C//DTD SVG 20010904//EN"
 "http://www.w3.org/TR/2001/REC-SVG-20010904/DTD/svg10.dtd">
<svg version="1.0" xmlns="http://www.w3.org/2000/svg"
 width="223.000000pt" height="148.000000pt" viewBox="0 0 223.000000 148.000000"
 preserveAspectRatio="xMidYMid meet">

<g transform="translate(0.000000,148.000000) scale(0.100000,-0.100000)"
fill="#000000" stroke="none">
<path d="M0 740 l0 -740 1115 0 1115 0 0 740 0 740 -1115 0 -1115 0 0 -740z
m720 595 c47 -24 74 -71 75 -131 1 -116 -119 -188 -224 -135 -55 29 -81 72
-81 138 0 45 5 58 32 89 18 20 41 40 52 44 34 14 115 11 146 -5z m826 -384
c60 -27 110 -76 141 -139 l28 -57 3 -312 3 -313 -135 0 -136 0 0 255 c0 274
-5 306 -51 339 -52 36 -146 10 -186 -51 -16 -24 -19 -59 -23 -288 l-5 -260
-130 0 -130 0 -3 413 -2 412 125 0 125 0 0 -57 0 -58 30 37 c81 98 226 131
346 79z m-768 -413 l2 -408 -135 0 -135 0 0 410 0 411 133 -3 132 -3 3 -407z"/>
</g>
</svg>
